#VRML V2.0 utf8

# Generated by VCGLIB, (C)Copyright 1999-2001 VCG, IEI-CNR

NavigationInfo {
	type [ "EXAMINE", "ANY" ]
}
Transform {
  scale 1 1 1
  translation 0 0 0
  children
  [
    Shape
    {
      geometry IndexedFaceSet
      {
        creaseAngle .5
        solid FALSE
        coord Coordinate
        {
          point
          [
            9.19832 79.5877 -61.4357, 6.74593e-06 61.2897 -80.2292, 17.8737 42.3262 -89.9009, 43.9297 42.7388 -80.2292, 
            55.6554 76.6031 -47.3433, 58.29 18.9395 -80.2292, 78.5348 15.8458 -61.4357, 83.2686 36.7273 -43.7105, 
            0 -1.72472e-05 -105.863, 45.7779 -3.91942 -89.9009, -27.072 54.9866 -80.2292, -34.7313 30.0784 -89.9009, 
            -9.19832 90.5424 -43.7105, -55.6554 76.6031 -47.3433, 27.072 96.35 -13.3019, -9.0507e-07 99.1688 -18.9396, 
            94.3151 30.6448 -18.9396, 88.9534 47.6963 2.34717, 72.85 69.8608 -2.34719, 90.0523 -29.2598 -47.3433, 
            100 4.02673 -13.3019, 54.2221 -28.5726 -80.2292, 10.4186 -44.7486 -89.9009, 36.0252 -49.5844 -80.2292, 
            -58.29 18.9395 -80.2292, -60.6611 -8.75526 -80.2292, -39.3389 -23.7367 -89.9009, -72.85 33.3421 -61.4357, 
            -17.8737 99.3387 2.34717, -43.9297 90.8726 -2.3472, 34.7314 93.8613 13.3019, 0 94.6866 47.3433, 
            58.29 80.2292 18.9395, 90.0523 29.2598 47.3433, 60.6611 67.8438 43.7105, 100 -4.02674 13.3019, 
            88.9534 -47.6963 -2.34717, 94.3151 -30.6448 18.9396, 39.3389 -69.7945 -61.4357, 60.6611 -67.8438 -43.7105, 
            -10.4186 -60.3977 -80.2292, 0 -94.6866 -47.3433, -36.0252 -49.5844 -80.2292, -90.0523 -29.2598 -47.3433, 
            -54.2221 -58.9812 -61.4357, -88.9534 19.231 -43.7105, -83.2686 55.5208 -13.3019, -94.3151 30.6448 -18.9396, 
            -58.29 80.2292 18.9395, -78.5348 62.0362 13.3019, -45.7779 78.657 43.7105, 39.3389 69.7944 61.4357, 
            54.2221 28.5726 80.2292, 36.0252 49.5844 80.2292, 83.2686 -36.7273 43.7105, 78.5348 -15.8458 61.4357, 
            72.85 -69.8608 2.3472, 55.6554 -76.6031 47.3433, 58.29 -80.2292 -18.9395, 34.7314 -93.8613 -13.3019, 
            -45.7779 -78.657 -43.7105, -78.5349 -62.0362 -13.3019, -58.29 -80.2292 -18.9395, -100 13.6984 2.34718, 
            -100 -13.6984 -2.34718, -90.0523 29.2598 47.3433, -54.2221 58.9812 61.4357, -10.4186 60.3977 80.2292, 
            -36.0252 49.5844 80.2292, 10.4186 44.7486 89.9009, 45.7779 3.91941 89.9009, 0 1.72472e-05 105.863, 
            58.29 -18.9395 80.2292, 43.9297 -42.7388 80.2292, 27.072 -96.35 13.3019, -17.8737 -99.3387 -2.34716, 
            9.0507e-07 -99.1688 18.9396, -43.9297 -90.8726 2.3472, -83.2686 -55.5208 13.3019, -55.6554 -76.6031 47.3433, 
            -94.3151 -30.6448 18.9396, -88.9534 -19.231 43.7105, -39.3389 23.7367 89.9009, -60.6611 8.75526 80.2292, 
            17.8737 -42.3262 89.9009, 9.19832 -79.5877 61.4357, -6.74593e-06 -61.2897 80.2292, -9.19832 -90.5424 43.7105, 
            -72.85 -33.3421 61.4357, -58.29 -18.9395 80.2292, -34.7314 -30.0784 89.9009, -27.072 -54.9866 80.2293
          ]
        }

        texCoord TextureCoordinate
        {
          point
          [

          0.5 0.5 0.5 0.5 0.5 0.5 0.5 0.5 0.5 0.5 0.5 0.5 0.5 0.5 0.5 0.5 0.5 0.5 0.5 0.5 0.5 0.5 0.5 0.5 
          0.5 0.5 0.5 0.5 0.5 0.5 0.5 0.5 0.5 0.5 0.5 0.5 0.5 0.5 0.5 0.5 0.5 0.5 0.5 0.5 0.5 0.5 0.5 0.5 
          0.5 0.5 0.5 0.5 0.5 0.5 0.5 0.5 0.5 0.5 0.5 0.5 0.5 0.5 0.5 0.5 0.5 0.5 0.5 0.5 0.5 0.5 0.5 0.5 
          0.5 0.5 0.5 0.5 0.5 0.5 0.5 0.5 0.5 0.5 0.5 0.5 0.5 0.5 0.5 0.5 0.5 0.5 0.5 0.5 0.5 0.5 0.5 0.5 
          0.5 0.5 0.5 0.5 0.5 0.5 0.5 0.5 0.5 0.5 0.5 0.5 0.5 0.5 0.5 0.5 0.5 0.5 0.5 0.5 0.5 0.5 0.5 0.5 
          0.5 0.5 0.5 0.5 0.5 0.5 0.5 0.5 0.5 0.5 0.5 0.5 0.5 0.5 0.5 0.5 0.5 0.5 0.5 0.5 0.5 0.5 0.5 0.5 
          0.5 0.5 0.5 0.5 0.5 0.5 0.5 0.5 0.5 0.5 0.5 0.5 0.5 0.5 0.5 0.5 0.5 0.5 0.5 0.5 0.5 0.5 0.5 0.5 
          0.5 0.5 0.5 0.5 0.5 0.5 0.5 0.5 0.5 0.5 0.5 0.5 0.5 0.5 0.5 0.5 0.5 0.5 0.5 0.5 0.5 0.5 0.5 0.5 
          0.5 0.5 0.5 0.5 0.5 0.5 0.5 0.5 0.5 0.5 0.5 0.5 0.5 0.5 0.5 0.5 0.5 0.5 0.5 0.5 0.5 0.5 0.5 0.5 
          0.5 0.5 0.5 0.5 0.5 0.5 0.5 0.5 0.5 0.5 0.5 0.5 0.5 0.5 0.5 0.5 0.5 0.5 0.5 0.5 0.5 0.5 0.5 0.5 
          0.5 0.5 0.5 0.5 0.5 0.5 0.5 0.5 0.5 0.5 0.5 0.5 0.5 0.5 0.5 0.5 0.5 0.5 0.5 0.5 0.5 0.5 0.5 0.5 
          0.5 0.5 0.5 0.5 0.5 0.5 0.5 0.5 0.5 0.5 0.5 0.5 0.5 0.5 0.5 0.5 0.5 0.5 0.5 0.5 0.5 0.5 0.5 0.5 
          0.5 0.5 0.5 0.5 0.5 0.5 0.5 0.5 0.5 0.5 0.5 0.5 0.5 0.5 0.5 0.5 0.5 0.5 0.5 0.5 0.5 0.5 0.5 0.5 
          0.5 0.5 0.5 0.5 0.5 0.5 0.5 0.5 0.5 0.5 0.5 0.5 0.5 0.5 0.5 0.5 0.5 0.5 0.5 0.5 0.5 0.5 0.5 0.5 
          0.5 0.5 0.5 0.5 0.5 0.5 0.5 0.5 0.5 0.5 0.5 0.5 0.5 0.5 0.5 0.5 0.5 0.5 0.5 0.5 0.5 0.5 0.5 0.5 
          0.5 0.5 0.5 0.5 0.5 0.5 0.5 0.5 0.5 0.5 0.5 0.5 0.5 0.5 0.5 0.5 0.5 0.5 0.5 0.5 0.5 0.5 0.5 0.5 
          0.5 0.5 0.5 0.5 0.5 0.5 0.5 0.5 0.5 0.5 0.5 0.5 0.5 0.5 0.5 0.5 0.5 0.5 0.5 0.5 0.5 0.5 0.5 0.5 
          0.5 0.5 0.5 0.5 0.5 0.5 0.5 0.5 0.5 0.5 0.5 0.5 0.5 0.5 0.5 0.5 0.5 0.5 0.5 0.5 0.5 0.5 0.5 0.5 
          0.5 0.5 0.5 0.5 0.5 0.5 0.5 0.5 0.5 0.5 0.5 0.5 0.5 0.5 0.5 0.5 0.5 0.5 0.5 0.5 0.5 0.5 0.5 0.5 
          0.5 0.5 0.5 0.5 0.5 0.5 0.5 0.5 0.5 0.5 0.5 0.5 0.5 0.5 0.5 0.5 0.5 0.5 0.5 0.5 0.5 0.5 0.5 0.5 
          0.5 0.5 0.5 0.5 0.5 0.5 0.5 0.5 0.5 0.5 0.5 0.5 0.5 0.5 0.5 0.5 0.5 0.5 0.5 0.5 0.5 0.5 0.5 0.5 
          0.5 0.5 0.5 0.5 0.5 0.5 0.5 0.5 0.5 0.5 0.5 0.5 0.5 0.5 0.5 0.5 0.5 0.5 0.5 0.5 0.5 0.5 0.5 0.5 
          0.5 0.5 0.5 0.5 0.5 0.5 0.5 0.5 0.5 0.5 0.5 0.5 0.5 0.5 0.5 0.5 0.5 0.5 0.5 0.5 0.5 0.5 0.5 0.5 
          0.5 0.5 0.5 0.5 0.5 0.5 0.5 0.5 0.5 0.5 0.5 0.5 0.5 0.5 0.5 0.5 0.5 0.5 0.5 0.5 0.5 0.5 0.5 0.5 
          0.5 0.5 0.5 0.5 0.5 0.5 0.5 0.5 0.5 0.5 0.5 0.5 0.5 0.5 0.5 0.5 0.5 0.5 0.5 0.5 0.5 0.5 0.5 0.5 
          0.5 0.5 0.5 0.5 0.5 0.5 0.5 0.5 0.5 0.5 0.5 0.5 0.5 0.5 0.5 0.5 0.5 0.5 0.5 0.5 0.5 0.5 0.5 0.5 
          0.5 0.5 0.5 0.5 0.5 0.5 0.5 0.5 0.5 0.5 0.5 0.5 0.5 0.5 0.5 0.5 0.5 0.5 0.5 0.5 0.5 0.5 0.5 0.5 
          0.5 0.5 0.5 0.5 0.5 0.5 0.5 0.5 0.5 0.5 0.5 0.5 0.5 0.5 0.5 0.5 0.5 0.5 0.5 0.5 0.5 0.5 0.5 0.5 
          0.5 0.5 0.5 0.5 0.5 0.5 0.5 0.5 0.5 0.5 0.5 0.5 0.5 0.5 0.5 0.5 0.5 0.5 0.5 0.5 0.5 0.5 0.5 0.5 
          0.5 0.5 0.5 0.5 0.5 0.5 0.5 0.5 0.5 0.5 0.5 0.5 0.5 0.5 0.5 0.5 0.5 0.5 0.5 0.5 0.5 0.5 0.5 0.5 
          0.5 0.5 0.5 0.5 0.5 0.5 0.5 0.5 0.5 0.5 0.5 0.5 0.5 0.5 0.5 0.5 0.5 0.5 0.5 0.5 0.5 0.5 0.5 0.5 
          0.5 0.5 0.5 0.5 0.5 0.5 0.5 0.5 0.5 0.5 0.5 0.5 0.5 0.5 0.5 0.5 0.5 0.5 0.5 0.5 0.5 0.5 0.5 0.5 
          0.5 0.5 0.5 0.5 0.5 0.5 0.5 0.5 0.5 0.5 0.5 0.5 0.5 0.5 0.5 0.5 0.5 0.5 0.5 0.5 0.5 0.5 0.5 0.5 
          0.5 0.5 0.5 0.5 0.5 0.5 0.5 0.5 0.5 0.5 0.5 0.5 0.5 0.5 0.5 0.5 0.5 0.5 0.5 0.5 0.5 0.5 0.5 0.5 
          0.5 0.5 0.5 0.5 0.5 0.5 0.5 0.5 0.5 0.5 0.5 0.5 0.5 0.5 0.5 0.5 0.5 0.5 0.5 0.5 0.5 0.5 0.5 0.5 
          0.5 0.5 0.5 0.5 0.5 0.5 0.5 0.5 0.5 0.5 0.5 0.5 0.5 0.5 0.5 0.5 0.5 0.5 0.5 0.5 0.5 0.5 0.5 0.5 
          0.5 0.5 0.5 0.5 0.5 0.5 0.5 0.5 0.5 0.5 0.5 0.5 0.5 0.5 0.5 0.5 0.5 0.5 0.5 0.5 0.5 0.5 0.5 0.5 
          0.5 0.5 0.5 0.5 0.5 0.5 0.5 0.5 0.5 0.5 0.5 0.5 0.5 0.5 0.5 0.5 0.5 0.5 0.5 0.5 0.5 0.5 0.5 0.5 
          0.5 0.5 0.5 0.5 0.5 0.5 0.5 0.5 0.5 0.5 0.5 0.5 0.5 0.5 0.5 0.5 0.5 0.5 0.5 0.5 0.5 0.5 0.5 0.5 
          0.5 0.5 0.5 0.5 0.5 0.5 0.5 0.5 0.5 0.5 0.5 0.5 0.5 0.5 0.5 0.5 0.5 0.5 0.5 0.5 0.5 0.5 0.5 0.5 
          0.5 0.5 0.5 0.5 0.5 0.5 0.5 0.5 0.5 0.5 0.5 0.5 0.5 0.5 0.5 0.5 0.5 0.5 0.5 0.5 0.5 0.5 0.5 0.5 
          0.5 0.5 0.5 0.5 0.5 0.5 0.5 0.5 0.5 0.5 0.5 0.5 0.5 0.5 0.5 0.5 0.5 0.5 0.5 0.5 0.5 0.5 0.5 0.5 
          0.5 0.5 0.5 0.5 0.5 0.5 0.5 0.5 0.5 0.5 0.5 0.5 0.5 0.5 0.5 0.5 0.5 0.5 0.5 0.5 0.5 0.5 0.5 0.5 
          0.5 0.5 0.5 0.5 0.5 0.5 0.5 0.5 0.5 0.5 0.5 0.5 0.5 0.5 0.5 0.5 0.5 0.5 0.5 0.5 0.5 0.5 0.5 0.5 
          0.5 0.5 0.5 0.5 0.5 0.5 0.5 0.5 0.5 0.5 0.5 0.5 0.5 0.5 0.5 0.5 0.5 0.5 0.5 0.5 0.5 0.5 0.5 0.5 
          ]
        }
        texCoordIndex
        [

          0 1 2 -1 3 4 5 -1 6 7 8 -1 9 10 11 -1 
          12 13 14 -1 15 16 17 -1 18 19 20 -1 21 22 23 -1 
          24 25 26 -1 27 28 29 -1 30 31 32 -1 33 34 35 -1 
          36 37 38 -1 39 40 41 -1 42 43 44 -1 45 46 47 -1 
          48 49 50 -1 51 52 53 -1 54 55 56 -1 57 58 59 -1 
          60 61 62 -1 63 64 65 -1 66 67 68 -1 69 70 71 -1 
          72 73 74 -1 75 76 77 -1 78 79 80 -1 81 82 83 -1 
          84 85 86 -1 87 88 89 -1 90 91 92 -1 93 94 95 -1 
          96 97 98 -1 99 100 101 -1 102 103 104 -1 105 106 107 -1 
          108 109 110 -1 111 112 113 -1 114 115 116 -1 117 118 119 -1 
          120 121 122 -1 123 124 125 -1 126 127 128 -1 129 130 131 -1 
          132 133 134 -1 135 136 137 -1 138 139 140 -1 141 142 143 -1 
          144 145 146 -1 147 148 149 -1 150 151 152 -1 153 154 155 -1 
          156 157 158 -1 159 160 161 -1 162 163 164 -1 165 166 167 -1 
          168 169 170 -1 171 172 173 -1 174 175 176 -1 177 178 179 -1 
          180 181 182 -1 183 184 185 -1 186 187 188 -1 189 190 191 -1 
          192 193 194 -1 195 196 197 -1 198 199 200 -1 201 202 203 -1 
          204 205 206 -1 207 208 209 -1 210 211 212 -1 213 214 215 -1 
          216 217 218 -1 219 220 221 -1 222 223 224 -1 225 226 227 -1 
          228 229 230 -1 231 232 233 -1 234 235 236 -1 237 238 239 -1 
          240 241 242 -1 243 244 245 -1 246 247 248 -1 249 250 251 -1 
          252 253 254 -1 255 256 257 -1 258 259 260 -1 261 262 263 -1 
          264 265 266 -1 267 268 269 -1 270 271 272 -1 273 274 275 -1 
          276 277 278 -1 279 280 281 -1 282 283 284 -1 285 286 287 -1 
          288 289 290 -1 291 292 293 -1 294 295 296 -1 297 298 299 -1 
          300 301 302 -1 303 304 305 -1 306 307 308 -1 309 310 311 -1 
          312 313 314 -1 315 316 317 -1 318 319 320 -1 321 322 323 -1 
          324 325 326 -1 327 328 329 -1 330 331 332 -1 333 334 335 -1 
          336 337 338 -1 339 340 341 -1 342 343 344 -1 345 346 347 -1 
          348 349 350 -1 351 352 353 -1 354 355 356 -1 357 358 359 -1 
          360 361 362 -1 363 364 365 -1 366 367 368 -1 369 370 371 -1 
          372 373 374 -1 375 376 377 -1 378 379 380 -1 381 382 383 -1 
          384 385 386 -1 387 388 389 -1 390 391 392 -1 393 394 395 -1 
          396 397 398 -1 399 400 401 -1 402 403 404 -1 405 406 407 -1 
          408 409 410 -1 411 412 413 -1 414 415 416 -1 417 418 419 -1 
          420 421 422 -1 423 424 425 -1 426 427 428 -1 429 430 431 -1 
          432 433 434 -1 435 436 437 -1 438 439 440 -1 441 442 443 -1 
          444 445 446 -1 447 448 449 -1 450 451 452 -1 453 454 455 -1 
          456 457 458 -1 459 460 461 -1 462 463 464 -1 465 466 467 -1 
          468 469 470 -1 471 472 473 -1 474 475 476 -1 477 478 479 -1 
          480 481 482 -1 483 484 485 -1 486 487 488 -1 489 490 491 -1 
          492 493 494 -1 495 496 497 -1 498 499 500 -1 501 502 503 -1 
          504 505 506 -1 507 508 509 -1 510 511 512 -1 513 514 515 -1 
          516 517 518 -1 519 520 521 -1 522 523 524 -1 525 526 527 -1 
          528 529 530 -1 531 532 533 -1 534 535 536 -1 537 538 539 -1 
        ]
        coordIndex
        [
          0,1,2,-1, 0,2,3,-1, 0,3,4,-1, 5,6,7,-1, 5,7,4,-1, 5,4,3,-1, 
          8,9,5,-1, 8,5,3,-1, 8,3,2,-1, 10,11,8,-1, 10,8,2,-1, 10,2,1,-1, 
          12,13,10,-1, 12,10,1,-1, 12,1,0,-1, 14,15,12,-1, 14,12,0,-1, 14,0,4,-1, 
          16,17,18,-1, 16,18,4,-1, 16,4,7,-1, 19,20,16,-1, 19,16,7,-1, 19,7,6,-1, 
          9,21,19,-1, 9,19,6,-1, 9,6,5,-1, 22,23,21,-1, 22,21,9,-1, 22,9,8,-1, 
          24,25,26,-1, 24,26,8,-1, 24,8,11,-1, 13,27,24,-1, 13,24,11,-1, 13,11,10,-1, 
          15,28,29,-1, 15,29,13,-1, 15,13,12,-1, 30,31,28,-1, 30,28,15,-1, 30,15,14,-1, 
          18,32,30,-1, 18,30,14,-1, 18,14,4,-1, 33,34,32,-1, 33,32,18,-1, 33,18,17,-1, 
          20,35,33,-1, 20,33,17,-1, 20,17,16,-1, 36,37,35,-1, 36,35,20,-1, 36,20,19,-1, 
          23,38,39,-1, 23,39,19,-1, 23,19,21,-1, 40,41,38,-1, 40,38,23,-1, 40,23,22,-1, 
          26,42,40,-1, 26,40,22,-1, 26,22,8,-1, 43,44,42,-1, 43,42,26,-1, 43,26,25,-1, 
          27,45,43,-1, 27,43,25,-1, 27,25,24,-1, 46,47,45,-1, 46,45,27,-1, 46,27,13,-1, 
          48,49,46,-1, 48,46,13,-1, 48,13,29,-1, 31,50,48,-1, 31,48,29,-1, 31,29,28,-1, 
          32,34,51,-1, 32,51,31,-1, 32,31,30,-1, 52,53,51,-1, 52,51,34,-1, 52,34,33,-1, 
          37,54,55,-1, 37,55,33,-1, 37,33,35,-1, 56,57,54,-1, 56,54,37,-1, 56,37,36,-1, 
          39,58,56,-1, 39,56,36,-1, 39,36,19,-1, 41,59,58,-1, 41,58,39,-1, 41,39,38,-1, 
          42,44,60,-1, 42,60,41,-1, 42,41,40,-1, 61,62,60,-1, 61,60,44,-1, 61,44,43,-1, 
          47,63,64,-1, 47,64,43,-1, 47,43,45,-1, 49,65,63,-1, 49,63,47,-1, 49,47,46,-1, 
          50,66,65,-1, 50,65,49,-1, 50,49,48,-1, 67,68,66,-1, 67,66,50,-1, 67,50,31,-1, 
          53,69,67,-1, 53,67,31,-1, 53,31,51,-1, 70,71,69,-1, 70,69,53,-1, 70,53,52,-1, 
          55,72,70,-1, 55,70,52,-1, 55,52,33,-1, 57,73,72,-1, 57,72,55,-1, 57,55,54,-1, 
          58,59,74,-1, 58,74,57,-1, 58,57,56,-1, 75,76,74,-1, 75,74,59,-1, 75,59,41,-1, 
          62,77,75,-1, 62,75,41,-1, 62,41,60,-1, 78,79,77,-1, 78,77,62,-1, 78,62,61,-1, 
          64,80,78,-1, 64,78,61,-1, 64,61,43,-1, 65,81,80,-1, 65,80,64,-1, 65,64,63,-1, 
          68,82,83,-1, 68,83,65,-1, 68,65,66,-1, 69,71,82,-1, 69,82,68,-1, 69,68,67,-1, 
          72,73,84,-1, 72,84,71,-1, 72,71,70,-1, 85,86,84,-1, 85,84,73,-1, 85,73,57,-1, 
          76,87,85,-1, 76,85,57,-1, 76,57,74,-1, 77,79,87,-1, 77,87,76,-1, 77,76,75,-1, 
          80,81,88,-1, 80,88,79,-1, 80,79,78,-1, 83,89,88,-1, 83,88,81,-1, 83,81,65,-1, 
          71,90,89,-1, 71,89,83,-1, 71,83,82,-1, 86,91,90,-1, 86,90,71,-1, 86,71,84,-1, 
          87,79,91,-1, 87,91,86,-1, 87,86,85,-1, 89,90,91,-1, 89,91,79,-1, 89,79,88,-1
        ]
      }
      appearance Appearance
      {
        material Material
        {
	       ambientIntensity 0.2
	       diffuseColor 0.9 0.9 0.9
	       specularColor .1 .1 .1
	       shininess .5
        }
      }
    }
  ]
}
