ply
format ascii 1.0
comment Created by Blender 2.82 (sub 7) - www.blender.org, source file: ''
element vertex 300
property float x
property float y
property float z
property float nx
property float ny
property float nz
property uchar red
property uchar green
property uchar blue
property uchar alpha
element face 60
property list uchar uint vertex_indices
end_header
0.091983 0.614357 0.795877 -0.263339 -0.736050 -0.623604 255 255 255 255
0.000000 0.802292 0.612897 -0.263339 -0.736050 -0.623604 255 255 255 255
0.178737 0.899009 0.423262 -0.263339 -0.736050 -0.623604 255 255 255 255
0.439297 0.802292 0.427389 -0.263339 -0.736050 -0.623604 255 255 255 255
0.556554 0.473433 0.766031 -0.263339 -0.736050 -0.623604 255 255 255 255
0.582900 0.802292 0.189396 -0.656481 -0.641971 -0.396114 255 255 255 255
0.785348 0.614357 0.158458 -0.656481 -0.641971 -0.396114 255 255 255 255
0.832686 0.437105 0.367273 -0.656481 -0.641971 -0.396114 255 255 255 255
0.556554 0.473433 0.766031 -0.656481 -0.641971 -0.396114 255 255 255 255
0.439297 0.802292 0.427389 -0.656481 -0.641971 -0.396114 255 255 255 255
0.000000 1.058628 0.000000 -0.337843 -0.918861 -0.203852 255 255 255 255
0.457779 0.899009 -0.039194 -0.337843 -0.918861 -0.203852 255 255 255 255
0.582900 0.802292 0.189396 -0.337843 -0.918861 -0.203852 255 255 255 255
0.439297 0.802292 0.427389 -0.337843 -0.918861 -0.203852 255 255 255 255
0.178737 0.899009 0.423262 -0.337843 -0.918861 -0.203852 255 255 255 255
-0.270720 0.802292 0.549866 0.089475 -0.918862 -0.384302 255 255 255 255
-0.347313 0.899009 0.300784 0.089475 -0.918862 -0.384302 255 255 255 255
0.000000 1.058628 0.000000 0.089475 -0.918862 -0.384302 255 255 255 255
0.178737 0.899009 0.423262 0.089475 -0.918862 -0.384302 255 255 255 255
0.000000 0.802292 0.612897 0.089475 -0.918862 -0.384302 255 255 255 255
-0.091983 0.437105 0.905425 0.173864 -0.641971 -0.746756 255 255 255 255
-0.556554 0.473433 0.766031 0.173864 -0.641971 -0.746756 255 255 255 255
-0.270720 0.802292 0.549866 0.173864 -0.641971 -0.746756 255 255 255 255
0.000000 0.802292 0.612897 0.173864 -0.641971 -0.746756 255 255 255 255
0.091983 0.614357 0.795877 0.173864 -0.641971 -0.746756 255 255 255 255
0.270720 0.133019 0.963500 -0.173864 -0.380821 -0.908156 255 255 255 255
-0.000000 0.189396 0.991688 -0.173864 -0.380821 -0.908156 255 255 255 255
-0.091983 0.437105 0.905425 -0.173864 -0.380821 -0.908156 255 255 255 255
0.091983 0.614357 0.795877 -0.173864 -0.380821 -0.908156 255 255 255 255
0.556554 0.473433 0.766031 -0.173864 -0.380821 -0.908156 255 255 255 255
0.943151 0.189396 0.306448 -0.809981 -0.228597 -0.540069 255 255 255 255
0.889534 -0.023472 0.476963 -0.809981 -0.228597 -0.540069 255 255 255 255
0.728500 0.023472 0.698608 -0.809981 -0.228597 -0.540069 255 255 255 255
0.556554 0.473433 0.766031 -0.809981 -0.228597 -0.540069 255 255 255 255
0.832686 0.437105 0.367273 -0.809981 -0.228597 -0.540069 255 255 255 255
0.900523 0.473433 -0.292598 -0.917434 -0.380821 -0.115281 255 255 255 255
1.000000 0.133019 0.040267 -0.917434 -0.380821 -0.115281 255 255 255 255
0.943151 0.189396 0.306448 -0.917434 -0.380821 -0.115281 255 255 255 255
0.832686 0.437105 0.367273 -0.917434 -0.380821 -0.115281 255 255 255 255
0.785348 0.614357 0.158458 -0.917434 -0.380821 -0.115281 255 255 255 255
0.457779 0.899009 -0.039194 -0.674459 -0.736050 0.057746 255 255 255 255
0.542221 0.802292 -0.285726 -0.674459 -0.736050 0.057746 255 255 255 255
0.900523 0.473433 -0.292598 -0.674459 -0.736050 0.057746 255 255 255 255
0.785348 0.614357 0.158458 -0.674459 -0.736050 0.057746 255 255 255 255
0.582900 0.802292 0.189396 -0.674459 -0.736050 0.057746 255 255 255 255
0.104186 0.899009 -0.447486 -0.298274 -0.918862 0.258314 255 255 255 255
0.360252 0.802292 -0.495844 -0.298274 -0.918862 0.258314 255 255 255 255
0.542221 0.802292 -0.285726 -0.298274 -0.918862 0.258314 255 255 255 255
0.457779 0.899009 -0.039194 -0.298274 -0.918862 0.258314 255 255 255 255
0.000000 1.058628 0.000000 -0.298274 -0.918862 0.258314 255 255 255 255
-0.582900 0.802292 0.189396 0.393142 -0.918862 -0.033660 255 255 255 255
-0.606611 0.802292 -0.087552 0.393142 -0.918862 -0.033660 255 255 255 255
-0.393389 0.899009 -0.237367 0.393142 -0.918862 -0.033660 255 255 255 255
0.000000 1.058628 0.000000 0.393142 -0.918862 -0.033660 255 255 255 255
-0.347313 0.899009 0.300784 0.393142 -0.918862 -0.033660 255 255 255 255
-0.556554 0.473433 0.766031 0.511707 -0.736050 -0.443154 255 255 255 255
-0.728500 0.614357 0.333421 0.511707 -0.736050 -0.443154 255 255 255 255
-0.582900 0.802292 0.189396 0.511707 -0.736050 -0.443154 255 255 255 255
-0.347313 0.899009 0.300784 0.511707 -0.736050 -0.443154 255 255 255 255
-0.270720 0.802292 0.549866 0.511707 -0.736050 -0.443154 255 255 255 255
-0.000000 0.189396 0.991688 0.263339 -0.228597 -0.937228 255 255 255 255
-0.178737 -0.023472 0.993387 0.263339 -0.228597 -0.937228 255 255 255 255
-0.439297 0.023472 0.908726 0.263339 -0.228597 -0.937228 255 255 255 255
-0.556554 0.473433 0.766031 0.263339 -0.228597 -0.937228 255 255 255 255
-0.091983 0.437105 0.905425 0.263339 -0.228597 -0.937228 255 255 255 255
0.347314 -0.133019 0.938613 -0.089475 0.067197 -0.993720 255 255 255 255
0.000000 -0.473433 0.946866 -0.089475 0.067197 -0.993720 255 255 255 255
-0.178737 -0.023472 0.993387 -0.089475 0.067197 -0.993720 255 255 255 255
-0.000000 0.189396 0.991688 -0.089475 0.067197 -0.993720 255 255 255 255
0.270720 0.133019 0.963500 -0.089475 0.067197 -0.993720 255 255 255 255
0.728500 0.023472 0.698608 -0.511707 -0.067197 -0.856528 255 255 255 255
0.582900 -0.189395 0.802292 -0.511707 -0.067197 -0.856528 255 255 255 255
0.347314 -0.133019 0.938613 -0.511707 -0.067197 -0.856528 255 255 255 255
0.270720 0.133019 0.963500 -0.511707 -0.067197 -0.856528 255 255 255 255
0.556554 0.473433 0.766031 -0.511707 -0.067197 -0.856528 255 255 255 255
0.900523 -0.473433 0.292598 -0.763934 0.228597 -0.603447 255 255 255 255
0.606611 -0.437105 0.678438 -0.763934 0.228597 -0.603447 255 255 255 255
0.582900 -0.189395 0.802292 -0.763934 0.228597 -0.603447 255 255 255 255
0.728500 0.023472 0.698608 -0.763934 0.228597 -0.603447 255 255 255 255
0.889534 -0.023472 0.476963 -0.763934 0.228597 -0.603447 255 255 255 255
1.000000 0.133019 0.040267 -0.972733 0.067198 -0.221980 255 255 255 255
1.000000 -0.133019 -0.040267 -0.972733 0.067198 -0.221980 255 255 255 255
0.900523 -0.473433 0.292598 -0.972733 0.067198 -0.221980 255 255 255 255
0.889534 -0.023472 0.476963 -0.972733 0.067198 -0.221980 255 255 255 255
0.943151 0.189396 0.306448 -0.972733 0.067198 -0.221980 255 255 255 255
0.889534 0.023472 -0.476963 -0.972733 -0.067197 0.221980 255 255 255 255
0.943151 -0.189396 -0.306448 -0.972733 -0.067197 0.221980 255 255 255 255
1.000000 -0.133019 -0.040267 -0.972733 -0.067197 0.221980 255 255 255 255
1.000000 0.133019 0.040267 -0.972733 -0.067197 0.221980 255 255 255 255
0.900523 0.473433 -0.292598 -0.972733 -0.067197 0.221980 255 255 255 255
0.360252 0.802292 -0.495844 -0.579591 -0.641971 0.501944 255 255 255 255
0.393389 0.614357 -0.697944 -0.579591 -0.641971 0.501944 255 255 255 255
0.606611 0.437105 -0.678438 -0.579591 -0.641971 0.501944 255 255 255 255
0.900523 0.473433 -0.292598 -0.579591 -0.641971 0.501944 255 255 255 255
0.542221 0.802292 -0.285726 -0.579591 -0.641971 0.501944 255 255 255 255
-0.104186 0.802292 -0.603977 -0.153500 -0.736051 0.659293 255 255 255 255
0.000000 0.473433 -0.946866 -0.153500 -0.736051 0.659293 255 255 255 255
0.393389 0.614357 -0.697944 -0.153500 -0.736051 0.659293 255 255 255 255
0.360252 0.802292 -0.495844 -0.153500 -0.736051 0.659293 255 255 255 255
0.104186 0.899009 -0.447486 -0.153500 -0.736051 0.659293 255 255 255 255
-0.393389 0.899009 -0.237367 0.153500 -0.918862 0.363499 255 255 255 255
-0.360252 0.802292 -0.495844 0.153500 -0.918862 0.363499 255 255 255 255
-0.104186 0.802292 -0.603977 0.153500 -0.918862 0.363499 255 255 255 255
0.104186 0.899009 -0.447486 0.153500 -0.918862 0.363499 255 255 255 255
0.000000 1.058628 0.000000 0.153500 -0.918862 0.363499 255 255 255 255
-0.900523 0.473433 -0.292598 0.579591 -0.736050 0.349720 255 255 255 255
-0.542221 0.614357 -0.589812 0.579591 -0.736050 0.349720 255 255 255 255
-0.360252 0.802292 -0.495844 0.579591 -0.736050 0.349720 255 255 255 255
-0.393389 0.899009 -0.237367 0.579591 -0.736050 0.349720 255 255 255 255
-0.606611 0.802292 -0.087552 0.579591 -0.736050 0.349720 255 255 255 255
-0.728500 0.614357 0.333421 0.763934 -0.641971 -0.065406 255 255 255 255
-0.889534 0.437105 0.192310 0.763934 -0.641971 -0.065406 255 255 255 255
-0.900523 0.473433 -0.292598 0.763934 -0.641971 -0.065406 255 255 255 255
-0.606611 0.802292 -0.087552 0.763934 -0.641971 -0.065406 255 255 255 255
-0.582900 0.802292 0.189396 0.763934 -0.641971 -0.065406 255 255 255 255
-0.832686 0.133019 0.555208 0.809981 -0.380821 -0.445990 255 255 255 255
-0.943151 0.189396 0.306448 0.809981 -0.380821 -0.445990 255 255 255 255
-0.889534 0.437105 0.192310 0.809981 -0.380821 -0.445990 255 255 255 255
-0.728500 0.614357 0.333421 0.809981 -0.380821 -0.445990 255 255 255 255
-0.556554 0.473433 0.766031 0.809981 -0.380821 -0.445990 255 255 255 255
-0.582900 -0.189396 0.802292 0.656480 -0.067198 -0.751344 255 255 255 255
-0.785348 -0.133019 0.620362 0.656480 -0.067198 -0.751344 255 255 255 255
-0.832686 0.133019 0.555208 0.656480 -0.067198 -0.751344 255 255 255 255
-0.556554 0.473433 0.766031 0.656480 -0.067198 -0.751344 255 255 255 255
-0.439297 0.023472 0.908726 0.656480 -0.067198 -0.751344 255 255 255 255
0.000000 -0.473433 0.946866 0.337843 0.228597 -0.913020 255 255 255 255
-0.457779 -0.437105 0.786570 0.337843 0.228597 -0.913020 255 255 255 255
-0.582900 -0.189396 0.802292 0.337843 0.228597 -0.913020 255 255 255 255
-0.439297 0.023472 0.908726 0.337843 0.228597 -0.913020 255 255 255 255
-0.178737 -0.023472 0.993387 0.337843 0.228597 -0.913020 255 255 255 255
0.582900 -0.189395 0.802292 -0.393142 0.380821 -0.836908 255 255 255 255
0.606611 -0.437105 0.678438 -0.393142 0.380821 -0.836908 255 255 255 255
0.393389 -0.614357 0.697944 -0.393142 0.380821 -0.836908 255 255 255 255
0.000000 -0.473433 0.946866 -0.393142 0.380821 -0.836908 255 255 255 255
0.347314 -0.133019 0.938613 -0.393142 0.380821 -0.836908 255 255 255 255
0.542221 -0.802292 0.285726 -0.579591 0.641971 -0.501944 255 255 255 255
0.360252 -0.802292 0.495844 -0.579591 0.641971 -0.501944 255 255 255 255
0.393389 -0.614357 0.697944 -0.579591 0.641971 -0.501944 255 255 255 255
0.606611 -0.437105 0.678438 -0.579591 0.641971 -0.501944 255 255 255 255
0.900523 -0.473433 0.292598 -0.579591 0.641971 -0.501944 255 255 255 255
0.943151 -0.189396 -0.306448 -0.917434 0.380821 0.115281 255 255 255 255
0.832686 -0.437105 -0.367273 -0.917434 0.380821 0.115281 255 255 255 255
0.785348 -0.614357 -0.158458 -0.917434 0.380821 0.115281 255 255 255 255
0.900523 -0.473433 0.292598 -0.917434 0.380821 0.115281 255 255 255 255
1.000000 -0.133019 -0.040267 -0.917434 0.380821 0.115281 255 255 255 255
0.728500 -0.023472 -0.698608 -0.809981 0.228597 0.540069 255 255 255 255
0.556554 -0.473433 -0.766031 -0.809981 0.228597 0.540069 255 255 255 255
0.832686 -0.437105 -0.367273 -0.809981 0.228597 0.540069 255 255 255 255
0.943151 -0.189396 -0.306448 -0.809981 0.228597 0.540069 255 255 255 255
0.889534 0.023472 -0.476963 -0.809981 0.228597 0.540069 255 255 255 255
0.606611 0.437105 -0.678438 -0.763934 -0.228597 0.603447 255 255 255 255
0.582900 0.189396 -0.802292 -0.763934 -0.228597 0.603447 255 255 255 255
0.728500 -0.023472 -0.698608 -0.763934 -0.228597 0.603447 255 255 255 255
0.889534 0.023472 -0.476963 -0.763934 -0.228597 0.603447 255 255 255 255
0.900523 0.473433 -0.292598 -0.763934 -0.228597 0.603447 255 255 255 255
0.000000 0.473433 -0.946866 -0.393142 -0.380821 0.836908 255 255 255 255
0.347314 0.133019 -0.938613 -0.393142 -0.380821 0.836908 255 255 255 255
0.582900 0.189396 -0.802292 -0.393142 -0.380821 0.836908 255 255 255 255
0.606611 0.437105 -0.678438 -0.393142 -0.380821 0.836908 255 255 255 255
0.393389 0.614357 -0.697944 -0.393142 -0.380821 0.836908 255 255 255 255
-0.360252 0.802292 -0.495844 0.298274 -0.641971 0.706333 255 255 255 255
-0.542221 0.614357 -0.589812 0.298274 -0.641971 0.706333 255 255 255 255
-0.457779 0.437105 -0.786570 0.298274 -0.641971 0.706333 255 255 255 255
0.000000 0.473433 -0.946866 0.298274 -0.641971 0.706333 255 255 255 255
-0.104186 0.802292 -0.603977 0.298274 -0.641971 0.706333 255 255 255 255
-0.785348 0.133019 -0.620362 0.674459 -0.380821 0.632519 255 255 255 255
-0.582900 0.189395 -0.802292 0.674459 -0.380821 0.632519 255 255 255 255
-0.457779 0.437105 -0.786570 0.674459 -0.380821 0.632519 255 255 255 255
-0.542221 0.614357 -0.589812 0.674459 -0.380821 0.632519 255 255 255 255
-0.900523 0.473433 -0.292598 0.674459 -0.380821 0.632519 255 255 255 255
-0.943151 0.189396 0.306448 0.972733 -0.228597 -0.039169 255 255 255 255
-1.000000 -0.023472 0.136984 0.972733 -0.228597 -0.039169 255 255 255 255
-1.000000 0.023472 -0.136984 0.972733 -0.228597 -0.039169 255 255 255 255
-0.900523 0.473433 -0.292598 0.972733 -0.228597 -0.039169 255 255 255 255
-0.889534 0.437105 0.192310 0.972733 -0.228597 -0.039169 255 255 255 255
-0.785348 -0.133019 0.620362 0.917434 0.067197 -0.392172 255 255 255 255
-0.900523 -0.473433 0.292598 0.917434 0.067197 -0.392172 255 255 255 255
-1.000000 -0.023472 0.136984 0.917434 0.067197 -0.392172 255 255 255 255
-0.943151 0.189396 0.306448 0.917434 0.067197 -0.392172 255 255 255 255
-0.832686 0.133019 0.555208 0.917434 0.067197 -0.392172 255 255 255 255
-0.457779 -0.437105 0.786570 0.674459 0.380821 -0.632519 255 255 255 255
-0.542221 -0.614357 0.589812 0.674459 0.380821 -0.632519 255 255 255 255
-0.900523 -0.473433 0.292598 0.674459 0.380821 -0.632519 255 255 255 255
-0.785348 -0.133019 0.620362 0.674459 0.380821 -0.632519 255 255 255 255
-0.582900 -0.189396 0.802292 0.674459 0.380821 -0.632519 255 255 255 255
-0.104186 -0.802292 0.603977 0.298274 0.641971 -0.706333 255 255 255 255
-0.360252 -0.802292 0.495844 0.298274 0.641971 -0.706333 255 255 255 255
-0.542221 -0.614357 0.589812 0.298274 0.641971 -0.706333 255 255 255 255
-0.457779 -0.437105 0.786570 0.298274 0.641971 -0.706333 255 255 255 255
0.000000 -0.473433 0.946866 0.298274 0.641971 -0.706333 255 255 255 255
0.360252 -0.802292 0.495844 -0.153500 0.736050 -0.659293 255 255 255 255
0.104186 -0.899009 0.447486 -0.153500 0.736050 -0.659293 255 255 255 255
-0.104186 -0.802292 0.603977 -0.153500 0.736050 -0.659293 255 255 255 255
0.000000 -0.473433 0.946866 -0.153500 0.736050 -0.659293 255 255 255 255
0.393389 -0.614357 0.697944 -0.153500 0.736050 -0.659293 255 255 255 255
0.457779 -0.899009 0.039194 -0.298274 0.918861 -0.258315 255 255 255 255
0.000000 -1.058628 0.000000 -0.298274 0.918861 -0.258315 255 255 255 255
0.104186 -0.899009 0.447486 -0.298274 0.918861 -0.258315 255 255 255 255
0.360252 -0.802292 0.495844 -0.298274 0.918861 -0.258315 255 255 255 255
0.542221 -0.802292 0.285726 -0.298274 0.918861 -0.258315 255 255 255 255
0.785348 -0.614357 -0.158458 -0.674459 0.736050 -0.057746 255 255 255 255
0.582900 -0.802292 -0.189396 -0.674459 0.736050 -0.057746 255 255 255 255
0.457779 -0.899009 0.039194 -0.674459 0.736050 -0.057746 255 255 255 255
0.542221 -0.802292 0.285726 -0.674459 0.736050 -0.057746 255 255 255 255
0.900523 -0.473433 0.292598 -0.674459 0.736050 -0.057746 255 255 255 255
0.556554 -0.473433 -0.766031 -0.656481 0.641971 0.396114 255 255 255 255
0.439297 -0.802292 -0.427388 -0.656481 0.641971 0.396114 255 255 255 255
0.582900 -0.802292 -0.189396 -0.656481 0.641971 0.396114 255 255 255 255
0.785348 -0.614357 -0.158458 -0.656481 0.641971 0.396114 255 255 255 255
0.832686 -0.437105 -0.367273 -0.656481 0.641971 0.396114 255 255 255 255
0.582900 0.189396 -0.802292 -0.511707 0.067197 0.856528 255 255 255 255
0.347314 0.133019 -0.938613 -0.511707 0.067197 0.856528 255 255 255 255
0.270720 -0.133019 -0.963500 -0.511707 0.067197 0.856528 255 255 255 255
0.556554 -0.473433 -0.766031 -0.511707 0.067197 0.856528 255 255 255 255
0.728500 -0.023472 -0.698608 -0.511707 0.067197 0.856528 255 255 255 255
-0.178737 0.023472 -0.993387 -0.089475 -0.067197 0.993720 255 255 255 255
0.000000 -0.189396 -0.991688 -0.089475 -0.067197 0.993720 255 255 255 255
0.270720 -0.133019 -0.963500 -0.089475 -0.067197 0.993720 255 255 255 255
0.347314 0.133019 -0.938613 -0.089475 -0.067197 0.993720 255 255 255 255
0.000000 0.473433 -0.946866 -0.089475 -0.067197 0.993720 255 255 255 255
-0.582900 0.189395 -0.802292 0.337843 -0.228597 0.913020 255 255 255 255
-0.439297 -0.023472 -0.908726 0.337843 -0.228597 0.913020 255 255 255 255
-0.178737 0.023472 -0.993387 0.337843 -0.228597 0.913020 255 255 255 255
0.000000 0.473433 -0.946866 0.337843 -0.228597 0.913020 255 255 255 255
-0.457779 0.437105 -0.786570 0.337843 -0.228597 0.913020 255 255 255 255
-0.832686 -0.133019 -0.555208 0.656481 0.067197 0.751344 255 255 255 255
-0.556554 -0.473433 -0.766031 0.656481 0.067197 0.751344 255 255 255 255
-0.439297 -0.023472 -0.908726 0.656481 0.067197 0.751344 255 255 255 255
-0.582900 0.189395 -0.802292 0.656481 0.067197 0.751344 255 255 255 255
-0.785348 0.133019 -0.620362 0.656481 0.067197 0.751344 255 255 255 255
-1.000000 0.023472 -0.136984 0.917434 -0.067197 0.392172 255 255 255 255
-0.943151 -0.189396 -0.306448 0.917434 -0.067197 0.392172 255 255 255 255
-0.832686 -0.133019 -0.555208 0.917434 -0.067197 0.392172 255 255 255 255
-0.785348 0.133019 -0.620362 0.917434 -0.067197 0.392172 255 255 255 255
-0.900523 0.473433 -0.292598 0.917434 -0.067197 0.392172 255 255 255 255
-0.900523 -0.473433 0.292598 0.972733 0.228597 0.039169 255 255 255 255
-0.889534 -0.437105 -0.192310 0.972733 0.228597 0.039169 255 255 255 255
-0.943151 -0.189396 -0.306448 0.972733 0.228597 0.039169 255 255 255 255
-1.000000 0.023472 -0.136984 0.972733 0.228597 0.039169 255 255 255 255
-1.000000 -0.023472 0.136984 0.972733 0.228597 0.039169 255 255 255 255
-0.360252 -0.802292 0.495844 0.579591 0.736051 -0.349720 255 255 255 255
-0.393389 -0.899009 0.237367 0.579591 0.736051 -0.349720 255 255 255 255
-0.606611 -0.802292 0.087552 0.579591 0.736051 -0.349720 255 255 255 255
-0.900523 -0.473433 0.292598 0.579591 0.736051 -0.349720 255 255 255 255
-0.542221 -0.614357 0.589812 0.579591 0.736051 -0.349720 255 255 255 255
0.104186 -0.899009 0.447486 0.153500 0.918861 -0.363499 255 255 255 255
0.000000 -1.058628 0.000000 0.153500 0.918861 -0.363499 255 255 255 255
-0.393389 -0.899009 0.237367 0.153500 0.918861 -0.363499 255 255 255 255
-0.360252 -0.802292 0.495844 0.153500 0.918861 -0.363499 255 255 255 255
-0.104186 -0.802292 0.603977 0.153500 0.918861 -0.363499 255 255 255 255
0.582900 -0.802292 -0.189396 -0.337843 0.918862 0.203851 255 255 255 255
0.439297 -0.802292 -0.427388 -0.337843 0.918862 0.203851 255 255 255 255
0.178737 -0.899009 -0.423262 -0.337843 0.918862 0.203851 255 255 255 255
0.000000 -1.058628 0.000000 -0.337843 0.918862 0.203851 255 255 255 255
0.457779 -0.899009 0.039194 -0.337843 0.918862 0.203851 255 255 255 255
0.091983 -0.614357 -0.795877 -0.263339 0.736050 0.623604 255 255 255 255
-0.000000 -0.802292 -0.612897 -0.263339 0.736050 0.623604 255 255 255 255
0.178737 -0.899009 -0.423262 -0.263339 0.736050 0.623604 255 255 255 255
0.439297 -0.802292 -0.427388 -0.263339 0.736050 0.623604 255 255 255 255
0.556554 -0.473433 -0.766031 -0.263339 0.736050 0.623604 255 255 255 255
0.000000 -0.189396 -0.991688 -0.173863 0.380821 0.908156 255 255 255 255
-0.091983 -0.437105 -0.905424 -0.173863 0.380821 0.908156 255 255 255 255
0.091983 -0.614357 -0.795877 -0.173863 0.380821 0.908156 255 255 255 255
0.556554 -0.473433 -0.766031 -0.173863 0.380821 0.908156 255 255 255 255
0.270720 -0.133019 -0.963500 -0.173863 0.380821 0.908156 255 255 255 255
-0.439297 -0.023472 -0.908726 0.263339 0.228597 0.937228 255 255 255 255
-0.556554 -0.473433 -0.766031 0.263339 0.228597 0.937228 255 255 255 255
-0.091983 -0.437105 -0.905424 0.263339 0.228597 0.937228 255 255 255 255
0.000000 -0.189396 -0.991688 0.263339 0.228597 0.937228 255 255 255 255
-0.178737 0.023472 -0.993387 0.263339 0.228597 0.937228 255 255 255 255
-0.943151 -0.189396 -0.306448 0.809981 0.380821 0.445990 255 255 255 255
-0.889534 -0.437105 -0.192310 0.809981 0.380821 0.445990 255 255 255 255
-0.728500 -0.614357 -0.333421 0.809981 0.380821 0.445990 255 255 255 255
-0.556554 -0.473433 -0.766031 0.809981 0.380821 0.445990 255 255 255 255
-0.832686 -0.133019 -0.555208 0.809981 0.380821 0.445990 255 255 255 255
-0.606611 -0.802292 0.087552 0.763934 0.641971 0.065406 255 255 255 255
-0.582900 -0.802292 -0.189396 0.763934 0.641971 0.065406 255 255 255 255
-0.728500 -0.614357 -0.333421 0.763934 0.641971 0.065406 255 255 255 255
-0.889534 -0.437105 -0.192310 0.763934 0.641971 0.065406 255 255 255 255
-0.900523 -0.473433 0.292598 0.763934 0.641971 0.065406 255 255 255 255
0.000000 -1.058628 0.000000 0.393142 0.918862 0.033660 255 255 255 255
-0.347314 -0.899009 -0.300784 0.393142 0.918862 0.033660 255 255 255 255
-0.582900 -0.802292 -0.189396 0.393142 0.918862 0.033660 255 255 255 255
-0.606611 -0.802292 0.087552 0.393142 0.918862 0.033660 255 255 255 255
-0.393389 -0.899009 0.237367 0.393142 0.918862 0.033660 255 255 255 255
-0.000000 -0.802292 -0.612897 0.089475 0.918862 0.384301 255 255 255 255
-0.270720 -0.802292 -0.549866 0.089475 0.918862 0.384301 255 255 255 255
-0.347314 -0.899009 -0.300784 0.089475 0.918862 0.384301 255 255 255 255
0.000000 -1.058628 0.000000 0.089475 0.918862 0.384301 255 255 255 255
0.178737 -0.899009 -0.423262 0.089475 0.918862 0.384301 255 255 255 255
-0.091983 -0.437105 -0.905424 0.173864 0.641971 0.746756 255 255 255 255
-0.556554 -0.473433 -0.766031 0.173864 0.641971 0.746756 255 255 255 255
-0.270720 -0.802292 -0.549866 0.173864 0.641971 0.746756 255 255 255 255
-0.000000 -0.802292 -0.612897 0.173864 0.641971 0.746756 255 255 255 255
0.091983 -0.614357 -0.795877 0.173864 0.641971 0.746756 255 255 255 255
-0.582900 -0.802292 -0.189396 0.511707 0.736050 0.443154 255 255 255 255
-0.347314 -0.899009 -0.300784 0.511707 0.736050 0.443154 255 255 255 255
-0.270720 -0.802292 -0.549866 0.511707 0.736050 0.443154 255 255 255 255
-0.556554 -0.473433 -0.766031 0.511707 0.736050 0.443154 255 255 255 255
-0.728500 -0.614357 -0.333421 0.511707 0.736050 0.443154 255 255 255 255
5 0 1 2 3 4
5 5 6 7 8 9
5 10 11 12 13 14
5 15 16 17 18 19
5 20 21 22 23 24
5 25 26 27 28 29
5 30 31 32 33 34
5 35 36 37 38 39
5 40 41 42 43 44
5 45 46 47 48 49
5 50 51 52 53 54
5 55 56 57 58 59
5 60 61 62 63 64
5 65 66 67 68 69
5 70 71 72 73 74
5 75 76 77 78 79
5 80 81 82 83 84
5 85 86 87 88 89
5 90 91 92 93 94
5 95 96 97 98 99
5 100 101 102 103 104
5 105 106 107 108 109
5 110 111 112 113 114
5 115 116 117 118 119
5 120 121 122 123 124
5 125 126 127 128 129
5 130 131 132 133 134
5 135 136 137 138 139
5 140 141 142 143 144
5 145 146 147 148 149
5 150 151 152 153 154
5 155 156 157 158 159
5 160 161 162 163 164
5 165 166 167 168 169
5 170 171 172 173 174
5 175 176 177 178 179
5 180 181 182 183 184
5 185 186 187 188 189
5 190 191 192 193 194
5 195 196 197 198 199
5 200 201 202 203 204
5 205 206 207 208 209
5 210 211 212 213 214
5 215 216 217 218 219
5 220 221 222 223 224
5 225 226 227 228 229
5 230 231 232 233 234
5 235 236 237 238 239
5 240 241 242 243 244
5 245 246 247 248 249
5 250 251 252 253 254
5 255 256 257 258 259
5 260 261 262 263 264
5 265 266 267 268 269
5 270 271 272 273 274
5 275 276 277 278 279
5 280 281 282 283 284
5 285 286 287 288 289
5 290 291 292 293 294
5 295 296 297 298 299
