#VRML V2.0 utf8

# Generated by VCGLIB, (C)Copyright 1999-2001 VCG, IEI-CNR

NavigationInfo {
	type [ "EXAMINE", "ANY" ]
}
Transform {
  scale 1 1 1
  translation 0 0 0
  children
  [
    Shape
    {
      geometry IndexedFaceSet
      {
        creaseAngle .5
        solid FALSE
        coord Coordinate
        {
          point
          [
            0.707107 -0.707107 -0.707107, -0.707107 -0.707107 -0.707107, 0 0 -1.06066, 0.707107 0.707107 -0.707107, 
            0 -1.06066 0, -0.707107 0.707107 -0.707107, 1.06066 -0 -0, -0.707107 -0.707107 0.707107, 
            0.707107 -0.707107 0.707107, -1.06066 0 0, 0.707107 0.707107 0.707107, 0 1.06066 -0, 
            -0.707107 0.707107 0.707107, 0 0 1.06066
          ]
        }
        coordIndex
        [
          1,0,2,-1, 0,3,2,-1, 1,4,0,-1, 2,5,1,-1, 6,3,0,-1, 5,2,3,-1, 
          7,4,1,-1, 8,0,4,-1, 9,1,5,-1, 6,10,3,-1, 0,8,6,-1, 3,11,5,-1, 
          7,8,4,-1, 1,9,7,-1, 5,12,9,-1, 8,10,6,-1, 11,3,10,-1, 12,5,11,-1, 
          13,8,7,-1, 12,7,9,-1, 8,13,10,-1, 10,12,11,-1, 7,12,13,-1, 12,10,13,-1
        ]
      }
      appearance Appearance
      {
        material Material
        {
	       ambientIntensity 0.2
	       diffuseColor 0.9 0.9 0.9
	       specularColor .1 .1 .1
	       shininess .5
        }
      }
    }
  ]
}
