# Blender v2.82 (sub 7) OBJ File: ''
# www.blender.org
mtllib tetrakis.mtl
o tetrakis_tetrakis_hexeaedre.006
v 0.707107 -0.707107 -0.707107
v -0.707107 -0.707107 -0.707107
v 0.000000 0.000000 -1.060660
v 0.707107 0.707107 -0.707107
v 0.000000 -1.060660 0.000000
v -0.707107 0.707107 -0.707107
v 1.060660 -0.000000 -0.000000
v -0.707107 -0.707107 0.707107
v 0.707107 -0.707107 0.707107
v -1.060660 0.000000 0.000000
v 0.707107 0.707107 0.707107
v 0.000000 1.060660 -0.000000
v -0.707107 0.707107 0.707107
v 0.000000 0.000000 1.060660
vn 0.0000 0.4472 0.8944
vn -0.4472 0.0000 0.8944
vn 0.0000 0.8944 0.4472
vn 0.4472 -0.0000 0.8944
vn -0.8944 0.0000 0.4472
vn 0.0000 -0.4472 0.8944
vn 0.4472 0.8944 0.0000
vn -0.4472 0.8944 -0.0000
vn 0.8944 -0.0000 0.4472
vn -0.8944 -0.4472 -0.0000
vn -0.8944 0.4472 -0.0000
vn 0.0000 -0.8944 0.4472
vn -0.0000 0.8944 -0.4472
vn 0.8944 0.4472 0.0000
vn 0.8944 -0.4472 0.0000
vn -0.8944 0.0000 -0.4472
vn -0.4472 -0.8944 -0.0000
vn 0.4472 -0.8944 0.0000
vn -0.0000 0.4472 -0.8944
vn 0.8944 -0.0000 -0.4472
vn -0.4472 0.0000 -0.8944
vn -0.0000 -0.8944 -0.4472
vn 0.4472 -0.0000 -0.8944
vn 0.0000 -0.4472 -0.8944
usemtl None
s off
f 2//1 1//1 3//1
f 1//2 4//2 3//2
f 2//3 5//3 1//3
f 3//4 6//4 2//4
f 7//5 4//5 1//5
f 6//6 3//6 4//6
f 8//7 5//7 2//7
f 9//8 1//8 5//8
f 10//9 2//9 6//9
f 7//10 11//10 4//10
f 1//11 9//11 7//11
f 4//12 12//12 6//12
f 8//13 9//13 5//13
f 2//14 10//14 8//14
f 6//15 13//15 10//15
f 9//16 11//16 7//16
f 12//17 4//17 11//17
f 13//18 6//18 12//18
f 14//19 9//19 8//19
f 13//20 8//20 10//20
f 9//21 14//21 11//21
f 11//22 13//22 12//22
f 8//23 13//23 14//23
f 13//24 11//24 14//24
